<svg enable-background="new 0 0 32 32" viewBox="0 0 32 32" xmlns="http://www.w3.org/2000/svg"><path d="m12 1.64c-.002 0-.004 0-.006 0-1.473 0-2.691.759-3.239 2h-.48c-.003 0-.006 0-.009 0-1.271 0-2.478.425-3.398 1.199-.976.82-1.514 1.951-1.516 3.182-.001.995.526 2.097 1.025 2.791-2.223.77-3.734 2.633-3.737 4.688-.003 2.046 1.507 3.91 3.734 4.687-.506.692-1.044 1.788-1.045 2.766-.003 2.426 2.215 4.403 4.947 4.408h.48c.543 1.238 1.764 1.998 3.244 2h.007c1.972 0 3.351-1.381 3.354-3.36v-21.001c.002-1.975-1.379-3.357-3.361-3.36zm0 17c-.353 0-.64-.287-.64-.64s.287-.64.64-.64.64.287.64.64-.287.64-.64.64zm2.64-5h-2.28v-6.335c.575-.159 1-.681 1-1.305 0-.75-.61-1.36-1.36-1.36s-1.36.61-1.36 1.36c0 .625.425 1.146 1 1.305v6.335h-1.64c-.001 0-.001 0-.002 0-.798 0-1.357.559-1.358 1.36v.64h-2.335c-.159-.575-.681-1-1.305-1-.75 0-1.36.61-1.36 1.36s.61 1.36 1.36 1.36c.625 0 1.147-.426 1.305-1h2.335v5.834c-.575.159-1 .681-1 1.306 0 .75.61 1.36 1.36 1.36s1.36-.61 1.36-1.36c0-.625-.425-1.147-1-1.306v-7.194c.001-.401.239-.641.639-.641h.001 4.64v11.639c-.003 1.456-.908 2.46-2.28 2.61v-9.303c.575-.159 1-.681 1-1.306 0-.75-.61-1.36-1.36-1.36s-1.36.61-1.36 1.36c0 .625.425 1.147 1 1.306v9.31c-1.103-.114-1.951-.742-2.3-1.735-.051-.144-.187-.24-.34-.24h-.724c-2.036-.003-4.23-1.413-4.228-3.686.002-.966.714-2.209 1.206-2.699.092-.091.127-.225.093-.35s-.132-.222-.257-.254c-2.199-.566-3.733-2.273-3.73-4.151.003-1.876 1.522-3.573 3.695-4.141h2.64c.159.575.681 1 1.305 1 .75 0 1.36-.61 1.36-1.36s-.61-1.359-1.36-1.359c-.625 0-1.146.425-1.305 1h-2.533c-.477-.541-1.092-1.691-1.091-2.618.002-1.016.449-1.95 1.261-2.632.779-.655 1.849-1.03 2.936-1.03h.008.724c.152 0 .288-.096.339-.239.392-1.103 1.384-1.761 2.655-1.761h.005c1.583.003 2.644 1.063 2.641 2.64zm-2.64-7c-.353 0-.64-.287-.64-.64s.287-.64.64-.64.64.287.64.64-.287.64-.64.64zm-3 16.22c.353 0 .64.287.64.64s-.287.64-.64.64-.64-.287-.64-.64.287-.64.64-.64zm-3.36-6.86c0 .353-.287.64-.64.64s-.64-.287-.64-.64.287-.64.64-.64.64.287.64.64zm2.72-5c0-.353.287-.64.64-.64s.64.287.64.64-.287.64-.64.64-.64-.287-.64-.64zm23 4.5c.002-2.046-1.508-3.909-3.734-4.687.507-.692 1.044-1.788 1.046-2.767.002-1.231-.54-2.365-1.526-3.193-.917-.77-2.163-1.212-3.421-1.214h-.48c-.544-1.238-1.764-1.998-3.243-2-.003 0-.005 0-.008 0-.972 0-1.808.323-2.418.933-.611.613-.934 1.451-.936 2.428v20.999c-.003 1.976 1.378 3.357 3.359 3.361h.007c1.473 0 2.69-.76 3.238-2h.479.01c1.271 0 2.478-.426 3.398-1.199.977-.82 1.515-1.95 1.517-3.182.001-.995-.526-2.098-1.025-2.791 2.224-.77 3.734-2.633 3.737-4.688zm-11.36-3.14c.353 0 .64.287.64.64s-.287.64-.64.64-.64-.287-.64-.64.287-.64.64-.64zm6.946 7.28h-2.641c-.159-.575-.681-1-1.306-1-.75 0-1.36.61-1.36 1.36s.61 1.36 1.36 1.36c.624 0 1.147-.425 1.306-1h2.533c.476.541 1.091 1.691 1.089 2.618-.001 1.016-.448 1.95-1.26 2.631-.781.657-1.865 1.01-2.943 1.03h-.724c-.152 0-.288.097-.339.239-.393 1.104-1.385 1.761-2.655 1.761-.002 0-.004 0-.005 0-.781-.001-1.445-.252-1.919-.725s-.724-1.134-.722-1.914v-8.64h2.279v6.334c-.575.159-1 .681-1 1.306 0 .75.61 1.36 1.36 1.36s1.36-.61 1.36-1.36c0-.624-.425-1.147-1-1.306v-6.334h1.639.003c.799 0 1.356-.559 1.358-1.36v-.64h2.334c.159.575.681 1 1.306 1 .75 0 1.36-.61 1.36-1.36s-.61-1.36-1.36-1.36c-.625 0-1.147.425-1.306 1h-2.333v-5.835c.575-.159 1-.681 1-1.305 0-.75-.61-1.36-1.36-1.36s-1.36.61-1.36 1.36c0 .624.425 1.146 1 1.305v7.195c0 .401-.238.641-.638.641-.001 0-.001 0-.002 0h-4.64v-11.641c.001-.781.252-1.445.725-1.918.397-.398.933-.627 1.555-.693v9.305c-.575.159-1 .681-1 1.305 0 .75.61 1.36 1.36 1.36s1.36-.61 1.36-1.36c0-.624-.425-1.146-1-1.305v-9.31c1.103.115 1.951.742 2.3 1.736.051.144.188.24.34.24h.724c1.092.001 2.17.383 2.959 1.045.82.689 1.271 1.626 1.269 2.641-.001.966-.714 2.209-1.205 2.699-.092.091-.127.225-.094.35.034.125.133.222.258.254 2.198.567 3.732 2.274 3.729 4.151-.002 1.874-1.52 3.57-3.694 4.14zm-3.306.36c0 .353-.287.64-.64.64s-.64-.287-.64-.64.287-.64.64-.64.64.287.64.64zm-3.64 4.36c.353 0 .64.287.64.64s-.287.64-.64.64-.64-.287-.64-.64.287-.64.64-.64zm3-16.22c-.353 0-.64-.287-.64-.64s.287-.64.64-.64.64.287.64.64-.287.64-.64.64zm3.36 6.86c0-.353.287-.64.64-.64s.64.287.64.64-.287.64-.64.64-.64-.287-.64-.64z"/><path d="m0 0h32v32h-32z" fill="none"/></svg>