<svg width="30" height="30" viewBox="0 0 30 30" fill="none" xmlns="http://www.w3.org/2000/svg">
<path fill-rule="evenodd" clip-rule="evenodd" d="M0 15C0 26.2492 3.75081 30 15 30C26.2492 30 30 26.2492 30 15C30 3.75081 26.2492 0 15 0C3.75081 0 0 3.75081 0 15Z" fill="#F28022"/>
<path fill-rule="evenodd" clip-rule="evenodd" d="M20.44 9.2364C20.48 9.30633 20.55 9.35627 20.64 9.35627C23.04 9.35627 24 11.3141 24 13.7114V19.6448C24 22.0422 23.04 23 20.64 23H9.36C6.95 23 6 22.0422 6 19.6448V13.7114C6 11.3141 6.95 9.35627 9.36 9.35627C9.44 9.35627 9.52 9.31631 9.55 9.2364L9.61 9.11654C9.64447 9.04399 9.67984 8.96947 9.71576 8.89383C9.97159 8.35497 10.2546 7.75881 10.43 7.40844C10.6244 7.02007 11.6119 7.01024 12.5577 7.00083C12.5851 7.00056 12.6126 7.00028 12.64 7H17.35C18.32 7.00999 19.38 7.02886 19.57 7.40844C19.7275 7.72308 19.9674 8.2299 20.1987 8.7184C20.2465 8.81921 20.2938 8.91925 20.34 9.01665L20.44 9.2364ZM19.71 13.0721C19.71 13.5715 20.11 13.9711 20.61 13.9711C21.11 13.9711 21.52 13.5715 21.52 13.0721C21.52 12.5726 21.11 12.1631 20.61 12.1631C20.11 12.1631 19.71 12.5726 19.71 13.0721ZM13.27 14.6204C13.74 14.1509 14.35 13.9012 15 13.9012C15.65 13.9012 16.26 14.1509 16.72 14.6104C17.18 15.0699 17.43 15.6792 17.43 16.3285C17.42 17.667 16.34 18.7558 15 18.7558C14.35 18.7558 13.74 18.506 13.28 18.0465C12.82 17.5871 12.57 16.9777 12.57 16.3285V16.3185C12.56 15.6892 12.81 15.0798 13.27 14.6204ZM17.77 19.1054C17.06 19.8146 16.08 20.2541 15 20.2541C13.95 20.2541 12.97 19.8446 12.22 19.1054C11.48 18.3562 11.07 17.3773 11.07 16.3285C11.06 15.2896 11.47 14.3107 12.21 13.5615C12.96 12.8124 13.95 12.4028 15 12.4028C16.05 12.4028 17.04 12.8124 17.78 13.5515C18.52 14.3007 18.93 15.2896 18.93 16.3285C18.92 17.4172 18.48 18.3962 17.77 19.1054Z" fill="white"/>
</svg>
