<svg width="30" height="30" viewBox="0 0 30 30" fill="none" xmlns="http://www.w3.org/2000/svg">
<path fill-rule="evenodd" clip-rule="evenodd" d="M0 15C0 26.2492 3.75081 30 15 30C26.2492 30 30 26.2492 30 15C30 3.75081 26.2492 0 15 0C3.75081 0 0 3.75081 0 15Z" fill="#F28022"/>
<path fill-rule="evenodd" clip-rule="evenodd" d="M6 9.5C6 7.567 7.567 6 9.5 6H20.5C22.433 6 24 7.567 24 9.5V20.5C24 22.433 22.433 24 20.5 24H9.5C7.567 24 6 22.433 6 20.5V9.5ZM7.25574 11.2997L7.25599 10.2478C7.2568 8.59396 8.59827 7.25596 10.2521 7.25596H19.7469C21.401 7.25596 22.7427 8.59428 22.7435 10.2484C22.7437 10.6086 22.7438 10.9938 22.7438 11.4V16.0715C22.3424 15.7313 21.1301 14.8844 20.9609 14.7836C19.7009 14.0276 18.1889 14.3696 17.2079 15.6476C17.197 15.6619 17.1642 15.7084 17.1144 15.779C16.7744 16.2608 15.6389 17.8697 15.2009 18.1397C15.0848 18.2117 14.9624 18.2504 14.8319 18.2684C14.5169 18.2954 14.2136 18.1334 13.6979 17.7887L13.6182 17.7378L13.6182 17.7378C13.3431 17.562 13.0442 17.371 12.7079 17.2316C11.1734 16.5899 10.0043 17.6501 9.38154 18.3611C9.37618 18.3658 8.61215 19.2969 8.08704 19.9368L8.08674 19.9372C7.81786 20.2648 7.61169 20.5161 7.60224 20.5274C7.38354 19.9955 7.25574 19.3808 7.25574 18.6923V11.2997ZM13 11.012C13 12.0959 12.093 13 11.0039 13C10.0465 13 9.23023 12.3005 9.04729 11.3949C9.01705 11.259 9 11.1193 9 10.9749C9 9.88323 9.88682 9 10.9829 9C11.5411 9 12.0465 9.2347 12.4085 9.60915C12.7721 9.97047 13 10.4684 13 11.012Z" fill="white"/>
</svg>
